# xmcd
#
# Track frame offsets:
#        150
#        17952
#        46345
#        65160
#
# Disc length: 1198 seconds
#
# Revision: 2
# Processed by: cddbd v1.5.1PL2 Copyright (c) Steve Scherf et al.
# Submitted via: ExactAudioCopy v0.95b3
#
DISCID=3404ac04
DTITLE=D.J. Bobo - Freedom
DYEAR=1995
DGENRE=Dance
TTITLE0=Freedom (Radio Version)
TTITLE1=Freedom (Club Mix)
TTITLE2=Freedom (Underground House Mix)
TTITLE3=Feel The Heat
EXTD=
EXTT0=
EXTT1=
EXTT2=
EXTT3=
PLAYORDER=
